# xmcd CD database file
#
# Track frame offsets:
#	150
#	13762
#	26980
#	42010
#	55868
#	69569
#	82001
#	95700
#	109519
#	121465
#	135164
#	148759
#	162168
#	175086
#	190097
#
# Disc length: 2705 seconds
#
# Revision: 0
# Processed by: cddbd v1.5.1PL2 Copyright (c) Steve Scherf et al.
# Submitted via: CDex 1.51
#
DISCID=c90a8f0f
DTITLE=Billy Holiday - Legends [CD3]
DYEAR=1900
DGENRE=Jazz
TTITLE0=Night And Day
TTITLE1=Summertime
TTITLE2=These Foolish Things
TTITLE3=They Can't Take That Away FFrom Me
TTITLE4=When You're smiling
TTITLE5=Dream Of Life
TTITLE6=I Get along Without You Very Well
TTITLE7=Jeepers Creepers
TTITLE8=Let's Call The Whole Thing Off
TTITLE9=The Way You Look Tonight
TTITLE10=Miss Brown To You
TTITLE11=What A Little Moonlight Can Do
TTITLE12=Falling In Love Again
TTITLE13=Georgia On My Mind
TTITLE14=One, Two, Button Your Shoe
EXTD=
EXTT0=
EXTT1=
EXTT2=
EXTT3=
EXTT4=
EXTT5=
EXTT6=
EXTT7=
EXTT8=
EXTT9=
EXTT10=
EXTT11=
EXTT12=
EXTT13=
EXTT14=
PLAYORDER=
